<svg xmlns="http://www.w3.org/2000/svg" viewBox="0 0 265.301 150.179"><g data-name="Group 1066"><path d="M151.725 83.746h-7.6v-38.1h7.6z" data-name="Rectangle 225"/><path d="M136.471 83.746h-7.6v-38.1h7.6z" data-name="Rectangle 226"/><path d="M121.216 83.746h-7.6v-38.1h7.6z" data-name="Rectangle 227"/><path d="M151.692.001v7.6h-38.1v-7.6z" data-name="Rectangle 228"/><path d="M151.719 15.227v7.6h-38.1v-7.6z" data-name="Rectangle 229"/><path d="M151.746 30.454v7.6h-38.1v-7.6z" data-name="Rectangle 230"/><g data-name="Group 1065"><path d="M37.9 120.879h5.7l14.4 17.4 14.3-17.4H78v29.3h-6.6v-20.2l-13.1 16.7h-1.4l-13.3-16.2v19.7h-5.7z" data-name="Path 1130"/><path d="M81.7 150.179h7.2l3.7-6.4H112l3.7 6.4h8l-17.7-29.3h-6.9zm13.9-11.8l6.6-12.2 6.9 12.2z" data-name="Path 1131"/><path d="M127.3 120.879h7.3v11.8l17.1-11.8H162l-20.2 13.6 22.5 15.7H153l-18.4-13.2v13.2h-7.3z" data-name="Path 1132"/><path d="M168.3 120.879h7.1v29.3h-7.1z" data-name="Rectangle 231"/><path d="M183.7 120.879h5l24.9 19.5v-19.5h6.4v29.3h-4.9l-24.9-19.8v19.8h-6.5z" data-name="Path 1133"/><path d="M223.4 150.179h7.1l3.7-6.4h19.4l3.7 6.4h8l-17.7-29.3h-6.9zm13.9-11.8l6.6-12.2 6.9 12.2z" data-name="Path 1134"/><path d="M0 120.879v29.3h32.4v-5.5H7.2v-7.2h21v-5.1h-21v-6.3h25.2v-5.2z" data-name="Path 1135"/></g></g></svg>